<?xml version="1.0" standalone="no"?>
<!DOCTYPE svg PUBLIC "-//W3C//DTD SVG 20010904//EN"
 "http://www.w3.org/TR/2001/REC-SVG-20010904/DTD/svg10.dtd">
<svg version="1.0" xmlns="http://www.w3.org/2000/svg"
 width="1440.000000pt" height="483.000000pt" viewBox="0 0 1440.000000 483.000000"
 preserveAspectRatio="xMidYMid meet">
<metadata>
Created by potrace 1.14, written by Peter Selinger 2001-2017
</metadata>
<g transform="translate(0.000000,483.000000) scale(0.100000,-0.100000)"
fill="#000000" stroke="none">
<path d="M13136 4710 c-36 -32 -60 -85 -100 -220 -65 -221 -97 -531 -63 -610
39 -93 128 -110 194 -39 38 42 53 94 72 261 11 90 34 230 50 312 33 157 38
233 20 269 -33 65 -115 77 -173 27z"/>
<path d="M7033 4715 c-39 -17 -62 -61 -91 -170 -40 -151 -61 -263 -72 -386
-17 -191 -15 -184 -52 -186 -99 -7 -105 -137 -7 -158 18 -4 29 -13 29 -23 1
-9 0 -121 0 -249 -1 -258 11 -341 56 -400 35 -45 92 -73 153 -73 61 0 97 13
134 48 56 53 60 72 59 257 -1 94 -4 207 -8 253 -8 97 -27 90 176 62 204 -29
411 -50 490 -50 l69 0 3 -237 c3 -231 4 -239 27 -277 15 -24 40 -45 65 -57
106 -48 201 0 241 123 16 47 17 87 11 442 -4 215 -9 393 -11 396 -2 3 -6 100
-9 215 -8 261 -13 327 -32 388 -37 115 -112 74 -169 -92 -43 -126 -92 -396
-104 -568 -4 -62 -10 -116 -14 -119 -7 -7 -226 25 -497 71 -80 13 -171 27
-202 31 l-58 7 0 276 c0 354 -18 445 -95 477 -42 17 -51 17 -92 -1z"/>
<path d="M4115 4601 c-16 -10 -105 -92 -197 -182 -165 -163 -213 -225 -206
-272 3 -19 9 -22 48 -22 69 1 155 58 286 189 108 109 156 173 169 228 5 21 1
33 -19 52 -30 31 -42 32 -81 7z"/>
<path d="M12210 4597 c-104 -29 -254 -151 -327 -264 -71 -112 -123 -257 -154
-433 -18 -100 -19 -469 -1 -527 28 -94 122 -157 232 -157 86 -1 156 37 268
144 46 43 85 74 86 67 2 -7 9 -39 16 -72 15 -72 29 -101 67 -137 59 -57 132
-69 189 -31 45 29 60 107 39 198 -9 37 -20 145 -25 238 -12 213 -16 231 -52
267 -77 77 -204 49 -254 -55 -8 -17 -59 -75 -114 -130 -82 -82 -102 -97 -111
-85 -6 9 -9 78 -6 185 5 195 26 301 83 422 55 117 99 152 267 221 60 25 60
100 -1 135 -41 24 -142 31 -202 14z"/>
<path d="M9530 4575 c-180 -58 -365 -248 -359 -368 4 -86 0 -154 -11 -207 -13
-63 -28 -386 -25 -540 2 -130 23 -187 78 -213 48 -23 88 -21 128 6 42 28 59
60 59 115 0 23 2 42 5 42 3 0 29 -18 57 -41 68 -54 114 -76 193 -94 81 -19
132 -8 169 36 55 65 24 143 -94 237 -124 99 -190 155 -190 161 0 3 26 20 58
36 277 145 403 317 390 536 -8 131 -75 232 -187 282 -60 27 -205 33 -271 12z
m143 -216 c30 -8 42 -18 53 -44 41 -99 -26 -231 -165 -320 -56 -36 -164 -95
-173 -95 -2 0 -4 57 -6 128 -1 70 -5 143 -8 163 -5 34 -2 39 48 79 74 59 125
83 208 99 3 0 22 -4 43 -10z"/>
<path d="M5615 4534 c-49 -8 -121 -23 -160 -35 -142 -43 -187 -81 -184 -158 0
-25 -4 -71 -11 -101 -35 -168 -78 -590 -82 -810 -3 -117 -1 -128 22 -169 44
-79 68 -86 264 -83 163 3 171 4 243 34 88 37 123 73 123 126 0 56 -29 95 -86
117 -27 10 -55 23 -63 29 -8 6 -62 13 -120 16 l-106 5 -3 160 -2 161 202 -1
c185 0 206 2 237 20 52 31 76 69 75 121 -1 55 -26 92 -79 118 -35 17 -60 19
-237 18 l-197 -1 4 77 4 77 68 12 c37 7 136 17 218 23 241 18 295 43 295 137
0 88 -74 124 -248 122 -48 -1 -127 -8 -177 -15z"/>
<path d="M4625 4519 c-27 -5 -72 -17 -100 -26 -61 -19 -236 -92 -251 -104 -6
-5 -14 -6 -17 -3 -15 16 -59 -10 -84 -49 -24 -36 -28 -53 -28 -117 -1 -41 -5
-237 -10 -435 -9 -412 -6 -461 34 -504 38 -41 76 -49 120 -25 59 31 71 69 71
217 0 87 3 126 10 122 6 -4 29 -30 51 -58 73 -93 257 -284 320 -331 48 -36 69
-46 99 -46 47 0 94 36 110 84 23 69 -47 172 -250 369 -78 76 -140 140 -138
142 1 1 30 17 63 36 191 105 333 247 384 385 51 136 -4 279 -128 332 -44 18
-188 25 -256 11z m195 -194 c26 -24 26 -79 0 -139 -24 -57 -95 -135 -175 -191
-75 -53 -231 -132 -270 -136 l-30 -4 -3 110 c-2 61 -6 147 -10 192 l-8 83 82
34 c71 30 135 50 219 70 11 3 55 4 97 2 58 -2 83 -7 98 -21z"/>
<path d="M11370 4420 c-59 -63 -71 -118 -114 -525 -8 -71 -15 -132 -15 -134
-1 -2 -72 65 -159 150 -86 85 -187 180 -223 211 -80 70 -225 168 -249 168 -31
0 -68 -39 -84 -88 -21 -63 -35 -296 -36 -576 0 -206 1 -220 22 -257 30 -54 91
-78 145 -58 21 9 48 29 60 48 22 33 23 41 23 280 l1 246 91 -95 c115 -120 230
-254 341 -397 103 -132 132 -155 201 -160 63 -5 112 18 140 65 28 50 49 413
41 716 -7 280 -22 362 -72 418 -26 29 -80 23 -113 -12z"/>
<path d="M8623 4430 c-32 -13 -51 -49 -71 -131 -15 -65 -17 -134 -17 -544 l0
-470 28 -51 c44 -78 109 -104 176 -70 70 37 86 105 72 300 -7 83 -16 288 -21
456 -9 304 -17 379 -43 442 -25 59 -77 87 -124 68z"/>
<path d="M1168 4363 c-27 -30 -39 -74 -39 -143 0 -56 92 -635 137 -865 21
-109 70 -278 94 -325 40 -78 132 -129 199 -110 67 19 101 73 126 197 22 105
135 444 146 437 5 -3 21 -29 35 -57 84 -167 293 -419 427 -514 68 -48 157 -30
194 41 15 27 17 76 19 356 1 197 9 410 19 540 27 343 15 406 -79 404 -50 0
-80 -21 -117 -80 -50 -81 -86 -328 -96 -651 -3 -112 -9 -203 -12 -203 -12 0
-121 164 -177 266 -72 130 -111 178 -169 200 -53 20 -94 14 -145 -20 -45 -30
-76 -89 -134 -251 -26 -71 -50 -137 -53 -145 -6 -17 -20 34 -88 340 -93 420
-115 495 -160 554 -26 34 -37 41 -71 44 -29 2 -45 -2 -56 -15z"/>
<path d="M2899 4370 c-119 -21 -141 -73 -159 -376 -5 -94 -8 -196 -5 -225 20
-228 25 -304 25 -375 0 -147 41 -223 128 -241 90 -18 483 7 547 36 82 37 113
105 80 175 -28 58 -61 70 -210 74 -71 2 -166 -1 -210 -7 -54 -6 -82 -6 -86 1
-3 5 -9 44 -12 86 -4 43 -13 114 -20 159 l-14 81 76 1 c82 0 114 10 178 56 36
26 73 71 73 89 0 6 -130 69 -165 80 -11 3 -57 6 -102 8 l-83 1 0 114 c0 62 3
113 8 114 4 0 106 4 227 8 258 9 284 16 285 83 0 19 -8 33 -27 45 -24 16 -56
18 -258 20 -126 1 -251 -2 -276 -7z"/>
<path d="M10120 4286 c-14 -8 -36 -33 -49 -56 -22 -39 -24 -56 -31 -278 -8
-243 1 -457 21 -521 29 -90 75 -131 147 -131 91 0 148 86 136 205 -10 109 -24
288 -34 453 -12 199 -22 240 -69 292 -41 45 -82 58 -121 36z"/>
<path d="M13066 3400 c-39 -12 -84 -56 -91 -91 -4 -16 -11 -31 -16 -34 -29
-19 5 -149 50 -189 31 -28 116 -32 161 -9 42 22 89 102 90 153 0 48 -61 132
-116 160 -22 11 -42 20 -45 19 -2 0 -17 -5 -33 -9z"/>
<path d="M10883 2491 c-54 -25 -80 -63 -65 -96 16 -36 48 -51 142 -70 80 -16
180 -57 180 -73 0 -7 -19 -19 -118 -72 l-63 -33 -37 35 c-20 20 -66 51 -101
69 -55 28 -78 34 -153 37 -79 4 -93 2 -142 -22 -60 -30 -86 -61 -93 -115 -4
-30 0 -43 22 -69 37 -44 65 -57 166 -77 84 -17 186 -62 181 -81 -1 -5 -14 -42
-28 -83 -29 -85 -64 -305 -64 -406 0 -38 5 -115 10 -170 29 -290 2 -590 -72
-817 l-33 -99 -455 5 c-622 8 -750 13 -750 31 0 7 66 48 148 90 234 123 395
223 480 299 35 31 132 201 132 231 0 22 3 24 19 15 29 -15 106 -12 170 6 31 8
67 19 81 23 42 11 35 40 -30 127 l-61 81 -157 56 c-86 30 -215 74 -287 97 -71
23 -166 56 -210 72 -99 37 -109 33 -172 -67 -56 -90 -56 -91 -49 -118 5 -23
77 -67 110 -67 21 0 21 -14 -1 -31 -9 -8 -24 -32 -34 -55 -21 -47 -14 -92 20
-128 l20 -22 -52 -88 c-57 -97 -147 -203 -164 -193 -6 4 -13 39 -17 79 -14
145 -80 394 -145 542 l-21 49 26 66 c33 80 38 197 12 246 -33 61 -99 124 -165
157 -58 28 -75 32 -152 32 -85 1 -88 2 -131 38 -103 84 -282 176 -430 220 -78
23 -278 34 -365 20 -58 -9 -61 -9 -97 19 -137 109 -347 129 -474 44 -55 -36
-94 -85 -94 -117 0 -10 10 -27 23 -39 21 -20 28 -21 145 -15 120 6 207 -4 200
-24 -2 -5 -34 -40 -71 -79 l-68 -71 -47 24 c-96 48 -250 53 -333 10 -91 -47
-129 -95 -129 -164 0 -103 41 -119 290 -110 47 1 97 -2 112 -8 27 -11 27 -11
21 -94 -8 -129 31 -328 112 -566 77 -228 113 -368 121 -477 3 -44 7 -90 10
-103 l4 -22 -547 2 -548 3 -13 145 c-16 184 -8 427 19 575 26 140 36 408 20
530 -7 48 -21 115 -33 148 -17 49 -18 61 -7 68 35 22 120 47 184 53 94 9 170
44 191 88 35 75 -22 158 -133 193 -104 33 -256 0 -345 -74 -20 -17 -41 -31
-47 -31 -16 0 -171 101 -171 112 0 18 87 47 190 62 111 17 150 38 150 81 0 55
-94 114 -195 122 -122 10 -251 -43 -350 -143 -58 -59 -62 -61 -125 -68 -99
-11 -216 -44 -305 -86 -131 -61 -289 -188 -396 -317 -55 -67 -63 -73 -98 -73
-97 0 -203 -72 -258 -177 -57 -107 -53 -164 23 -319 l45 -91 -11 -66 c-7 -37
-16 -64 -21 -61 -5 3 -9 13 -9 22 0 36 -60 141 -106 186 -64 62 -120 94 -176
102 -64 9 -143 -12 -186 -50 -37 -32 -82 -116 -82 -152 0 -31 -10 -35 -39 -13
l-26 19 -100 -34 c-55 -18 -134 -44 -175 -57 l-75 -24 -15 -58 c-14 -58 -14
-59 19 -155 52 -147 123 -292 168 -340 36 -38 45 -42 86 -42 26 0 47 -4 47
-10 0 -5 19 -23 42 -40 l41 -30 -391 0 -391 0 -8 37 c-4 21 -7 148 -7 283 0
209 3 262 21 360 12 63 26 158 32 210 11 115 -1 340 -24 425 -9 33 -19 70 -22
82 -8 33 59 62 176 77 53 7 114 21 135 31 109 52 92 175 -33 234 -109 51 -266
26 -373 -59 -20 -17 -40 -30 -44 -30 -11 0 -174 104 -174 111 0 15 101 48 175
58 132 19 165 36 165 88 0 43 -104 107 -192 119 -55 7 -181 -25 -245 -63 -26
-15 -72 -53 -103 -84 -54 -56 -56 -56 -128 -63 -225 -22 -427 -130 -623 -333
-81 -84 -90 -91 -142 -101 -132 -26 -235 -111 -283 -232 -45 -115 -28 -215 57
-335 27 -38 28 -43 19 -105 -4 -36 -12 -105 -16 -154 l-7 -90 -28 35 c-16 19
-88 122 -161 229 -202 301 -235 338 -354 398 -138 70 -326 38 -420 -72 -42
-49 -44 -91 -8 -145 29 -44 53 -53 116 -45 38 5 44 3 53 -17 16 -37 56 -58
123 -66 l63 -8 34 -90 c19 -49 32 -91 30 -93 -2 -2 -20 2 -41 8 -46 15 -182 8
-213 -11 -12 -8 -26 -32 -32 -54 -22 -82 -18 -81 -84 -25 -33 29 -72 58 -86
65 -26 14 -26 14 -32 179 -4 91 -10 241 -14 332 -7 196 -10 201 -110 235 -36
12 -109 39 -162 61 -162 66 -227 87 -334 108 -115 22 -202 26 -213 8 -18 -29
0 -353 36 -658 38 -316 51 -395 66 -417 22 -34 87 -79 187 -129 48 -25 109
-60 135 -78 68 -48 190 -113 237 -125 22 -5 76 -12 120 -15 90 -6 267 -25 305
-32 14 -2 68 -7 120 -11 84 -5 98 -4 114 12 17 17 19 17 48 -12 l30 -30 -224
-7 c-352 -10 -620 -24 -663 -35 -51 -13 -92 -13 -46 0 48 14 35 18 -24 8 -27
-5 -95 -13 -150 -18 -55 -5 -118 -14 -140 -20 -22 -6 -75 -11 -117 -11 -70 0
-78 -2 -78 -19 0 -19 128 -19 6983 -18 5975 2 7009 4 7170 16 131 10 187 18
187 27 0 21 -51 27 -265 29 -115 1 -262 8 -325 14 -63 6 -146 12 -185 14 l-70
2 135 54 c214 85 336 152 455 250 l72 59 21 89 c24 98 73 333 103 493 31 166
53 421 37 432 -18 13 -225 1 -316 -18 -42 -9 -132 -33 -200 -55 -67 -21 -154
-46 -192 -55 -40 -9 -79 -25 -93 -38 -26 -24 -28 -33 -52 -246 -9 -74 -22
-178 -30 -230 -8 -52 -17 -121 -20 -152 -4 -32 -10 -58 -15 -58 -5 0 -45 -25
-89 -55 -44 -30 -82 -55 -84 -55 -3 0 -7 23 -11 51 -12 90 -75 119 -232 106
-35 -2 -62 -2 -60 2 2 3 22 45 44 94 l41 87 69 0 c73 0 114 19 127 59 5 16 11
17 50 10 53 -10 103 7 134 47 38 48 23 100 -46 165 -131 126 -336 126 -500 2
-49 -37 -186 -194 -330 -379 -34 -43 -82 -99 -107 -123 l-46 -45 5 170 c2 93
5 177 7 187 1 11 17 21 43 28 114 29 118 35 112 179 -2 58 -11 141 -20 185 -9
44 -19 97 -22 117 -5 34 -10 39 -48 49 -61 17 -518 -10 -561 -33 -15 -8 -18
-18 -14 -58 l5 -48 -36 2 c-20 0 -48 -2 -63 -7 -27 -7 -27 -7 -34 54 -7 62
-27 98 -60 108 -52 15 -258 3 -419 -23 -225 -37 -255 -49 -255 -109 0 -15 -6
-29 -12 -31 -7 -2 -48 -15 -92 -29 l-78 -26 7 22 c3 12 10 54 15 92 11 84 40
171 74 221 32 47 25 61 -51 107 -73 44 -114 61 -213 88 -84 22 -100 36 -100
83 0 67 115 73 237 14 44 -22 89 -56 134 -100 37 -38 71 -68 76 -68 5 0 32 21
59 46 27 25 87 64 134 87 82 40 88 42 175 41 81 -2 224 -31 300 -61 78 -31
257 -182 352 -296 38 -47 41 -48 87 -45 l48 3 -47 63 c-97 129 -259 273 -370
329 -70 36 -200 80 -278 94 -37 7 -67 16 -67 20 0 5 -27 38 -61 73 -43 46 -82
76 -131 101 -67 33 -76 35 -172 35 -77 0 -111 -5 -143 -19z m293 -76 c51 -22
154 -107 154 -126 0 -3 -24 -9 -52 -12 -49 -4 -56 -2 -88 27 -48 43 -108 70
-202 92 -43 10 -78 21 -78 25 0 17 60 28 131 24 53 -3 95 -12 135 -30z m-4685
-61 c17 -8 28 -18 25 -21 -3 -3 -44 -12 -91 -19 -87 -14 -144 -37 -202 -80
-29 -22 -36 -23 -82 -13 -28 6 -51 14 -51 19 0 14 88 80 133 100 91 40 206 46
268 14z m-3046 -48 c19 -8 35 -19 35 -24 0 -5 -30 -13 -67 -17 -87 -9 -167
-37 -214 -75 -37 -29 -39 -30 -88 -18 -28 6 -51 15 -51 19 0 10 80 73 117 93
71 36 207 47 268 22z m4348 -134 c37 -17 67 -35 67 -39 0 -4 -21 -18 -47 -30
l-47 -21 -40 21 c-36 19 -57 22 -173 22 -73 0 -133 3 -133 6 0 9 31 34 60 50
40 21 90 28 171 25 60 -2 89 -9 142 -34z m-1597 -71 c53 -27 99 -60 139 -100
33 -34 65 -61 70 -61 6 0 41 27 79 60 45 38 94 70 142 90 127 53 244 37 244
-33 0 -44 -22 -59 -110 -74 -103 -18 -224 -63 -270 -102 l-35 -28 27 -54 c45
-90 61 -178 54 -304 -8 -135 -21 -261 -48 -469 -18 -135 -20 -190 -15 -375 4
-119 9 -231 13 -249 l6 -32 -546 0 c-544 0 -546 0 -664 25 -199 42 -219 50
-226 88 -29 163 -42 553 -20 620 l9 28 130 2 c154 3 212 22 274 93 47 53 61
100 61 197 0 132 -51 221 -167 295 -24 15 -43 32 -43 39 0 18 146 162 225 220
159 120 280 160 481 162 111 1 112 1 190 -38z m-3031 -50 c61 -30 97 -56 138
-101 31 -33 59 -60 63 -60 4 0 37 25 73 57 161 138 381 168 381 53 0 -37 -28
-56 -95 -65 -101 -13 -289 -88 -301 -119 -3 -8 4 -32 15 -55 31 -61 51 -145
53 -232 1 -43 0 -80 -2 -82 -3 -3 -29 -8 -57 -12 -51 -7 -53 -6 -53 17 0 14
-14 53 -31 86 -30 62 -82 113 -145 145 -47 24 -266 60 -318 53 -65 -10 -179
-69 -209 -108 -30 -38 -77 -136 -77 -159 0 -27 -20 -38 -50 -28 -22 8 -29 18
-34 52 -10 58 -59 156 -98 194 -18 18 -51 41 -72 51 l-38 19 63 63 c198 198
395 285 622 276 80 -3 97 -8 172 -45z m5155 10 c137 -39 314 -129 405 -206
l40 -33 -36 -39 c-72 -77 -119 -189 -119 -282 0 -76 45 -170 101 -211 78 -56
216 -64 343 -20 33 11 64 20 70 20 38 0 122 -350 142 -586 l6 -82 -68 -38
c-38 -21 -116 -60 -175 -86 -252 -112 -350 -128 -795 -128 l-312 0 -12 81
c-13 89 -42 190 -66 229 -11 19 -14 20 -10 5 20 -76 66 -286 66 -299 0 -9 -4
-16 -10 -16 -5 0 -10 12 -10 28 -1 40 -83 341 -125 457 -20 55 -50 150 -66
210 -17 61 -48 166 -70 235 -47 148 -57 226 -39 311 12 57 12 63 -5 75 -34 25
-157 46 -270 45 -60 0 -117 2 -126 5 -9 2 -22 18 -29 34 -26 63 33 100 161
100 79 0 150 -20 233 -66 35 -19 69 -34 77 -34 8 0 26 24 42 53 71 137 178
215 338 246 83 16 249 12 319 -8z m684 -237 c52 -18 149 -104 165 -147 18 -47
23 -141 11 -187 -17 -63 -82 -124 -157 -147 -84 -25 -197 -23 -249 5 -108 56
-149 187 -97 312 18 45 87 116 138 142 80 42 118 46 189 22z m-8791 -119 c20
-8 71 -24 114 -36 96 -26 364 -118 380 -131 15 -12 22 -115 28 -433 3 -143 10
-308 16 -368 6 -60 8 -111 5 -114 -3 -3 -46 20 -96 51 -50 31 -139 77 -198
102 -59 26 -136 59 -171 74 -35 16 -67 34 -71 42 -4 7 -13 78 -19 158 -6 80
-16 190 -21 245 -16 166 -23 425 -12 425 5 0 26 -7 45 -15z m5099 -38 c96 -54
141 -125 141 -222 0 -83 -17 -128 -66 -170 -53 -45 -120 -65 -222 -65 -156 0
-230 69 -242 223 -5 61 -2 79 15 112 31 59 67 105 104 130 45 31 62 34 140 31
54 -3 78 -10 130 -39z m6332 16 c3 -10 10 -79 16 -153 7 -74 16 -148 21 -163
10 -33 13 -31 -96 -47 -44 -6 -108 -16 -142 -22 -35 -5 -113 -11 -175 -12
l-112 -1 -8 35 c-4 19 -14 89 -23 155 -9 66 -18 130 -20 142 -4 17 1 24 28 32
50 16 312 46 444 49 51 2 63 -1 67 -15z m-9378 -19 c78 -26 108 -55 139 -131
66 -166 6 -307 -146 -343 -29 -7 -85 -10 -129 -8 -147 9 -216 80 -214 223 0
55 6 81 26 120 68 131 190 183 324 139z m10148 -26 c3 -24 11 -90 16 -148 6
-58 13 -119 16 -136 5 -29 4 -32 -28 -37 -18 -2 -119 -6 -224 -7 l-191 -2 -11
94 c-22 179 -23 225 -9 236 18 15 207 36 358 40 l67 2 6 -42z m-9319 -2 c71
-33 132 -80 151 -118 26 -50 23 -217 -4 -278 -37 -80 -67 -103 -165 -130 -92
-25 -237 4 -329 65 -128 85 -108 343 33 441 82 56 216 65 314 20z m11102 -88
c-3 -18 -13 -89 -22 -158 -9 -69 -22 -161 -30 -205 -7 -44 -19 -114 -25 -155
-17 -114 -50 -274 -58 -281 -4 -3 -79 -29 -167 -58 -88 -29 -211 -77 -272
-106 -131 -63 -122 -73 -93 107 10 68 26 195 35 283 25 259 34 336 46 402 10
58 13 62 49 77 49 20 479 122 524 125 15 1 17 -4 13 -31z m-2331 -6 c6 -4 19
-61 28 -127 9 -66 21 -130 26 -141 11 -29 78 -44 222 -52 l113 -7 14 -50 c20
-76 17 -286 -8 -444 -28 -181 -36 -207 -64 -215 -12 -4 -89 -24 -172 -45 -82
-22 -163 -45 -180 -52 l-30 -12 30 -7 c59 -15 178 -10 278 11 159 32 364 97
448 140 79 41 168 122 229 207 48 67 79 82 210 97 50 6 117 -26 126 -60 4 -18
2 -32 -8 -42 -21 -20 -95 -35 -139 -28 l-36 6 53 -55 c41 -42 54 -63 54 -86 0
-35 -12 -37 -85 -15 l-49 14 -45 -42 c-72 -67 -152 -124 -216 -154 l-60 -28
-922 -3 c-514 -1 -923 1 -923 6 0 5 9 35 21 68 30 86 58 269 66 424 5 119 1
201 -23 522 l-6 77 39 10 c21 6 64 13 95 17 67 8 61 17 77 -119 6 -54 16 -107
21 -117 6 -11 35 -26 67 -35 49 -15 83 -16 218 -11 429 18 430 18 441 60 3 14
0 80 -8 146 -14 119 -14 122 6 136 22 15 74 19 92 6z m-10606 -98 c131 -29
199 -94 373 -357 123 -185 197 -274 259 -313 l38 -24 0 -85 c0 -47 -2 -85 -5
-85 -3 0 -54 24 -112 53 -117 57 -172 104 -263 226 -53 70 -147 245 -181 336
-11 30 -24 57 -29 60 -5 3 -26 -6 -47 -21 -29 -19 -46 -24 -71 -20 -67 10 -81
54 -36 113 21 28 23 34 10 39 -9 4 -29 -5 -46 -20 -63 -52 -143 -53 -156 -1
-9 37 11 69 59 93 51 26 112 28 207 6z m11997 -58 c60 -28 88 -64 79 -101 -14
-57 -92 -57 -155 1 -25 21 -45 32 -55 28 -13 -5 -12 -11 10 -39 67 -88 -38
-156 -121 -79 -14 13 -29 24 -34 24 -4 0 -15 -17 -25 -37 -23 -49 -122 -216
-158 -268 -46 -64 -200 -215 -242 -237 -40 -20 -210 -88 -222 -88 -6 0 2 97
12 152 3 17 15 30 36 39 51 21 154 124 277 279 209 263 287 325 426 340 111
12 117 11 172 -14z m-3425 -32 c46 -14 87 -28 91 -31 5 -3 -14 -18 -41 -34
-28 -16 -53 -33 -57 -39 -3 -5 -17 -10 -29 -10 -30 0 -96 27 -96 40 0 10 42
100 46 100 2 0 40 -12 86 -26z m-7268 -16 c9 -12 16 -32 16 -43 0 -35 49 -122
88 -156 44 -39 157 -93 237 -114 92 -24 212 -20 289 9 35 14 76 32 91 42 45
30 76 97 89 192 l12 87 57 3 58 3 -5 -33 c-3 -18 -10 -73 -16 -123 -6 -49 -21
-139 -33 -200 -19 -97 -22 -142 -22 -372 l0 -263 -503 0 -504 0 -101 34 c-56
18 -142 46 -190 60 -69 21 -90 32 -96 49 -19 51 -33 352 -21 468 6 62 13 116
16 118 3 3 58 6 122 6 91 0 129 4 172 20 66 24 132 86 150 141 31 95 62 118
94 72z m2066 -68 c42 -12 129 -86 170 -145 16 -24 50 -92 75 -153 61 -150 76
-284 21 -190 -24 40 -231 258 -267 280 -34 21 -55 56 -41 70 13 13 58 -10 78
-40 11 -17 19 -21 26 -14 8 8 6 19 -6 36 -22 34 -56 56 -100 63 -35 5 -37 4
-52 -33 -19 -45 -97 -116 -119 -108 -10 4 -15 21 -15 54 0 59 47 134 106 167
43 25 71 28 124 13z m5553 -35 c139 -48 186 -94 141 -139 -33 -33 -147 -6
-160 38 -9 31 -45 67 -81 82 -25 11 -33 20 -33 40 0 17 4 24 13 21 6 -3 61
-22 120 -42z m-193 10 c0 -3 -6 -21 -14 -39 -20 -49 -9 -60 47 -45 83 20 103
-25 41 -93 -28 -32 -33 -42 -23 -54 6 -8 18 -14 25 -14 26 0 14 -38 -32 -100
-26 -34 -63 -72 -83 -84 -20 -13 -73 -46 -119 -75 -122 -77 -469 -257 -554
-287 -40 -15 -95 -38 -122 -52 -38 -20 -68 -27 -135 -30 -47 -2 -84 -2 -81 0
3 3 50 24 105 47 210 89 388 212 478 330 51 66 137 211 137 229 0 8 -13 30
-30 49 -16 18 -30 44 -30 56 0 29 33 82 64 102 22 15 27 15 55 0 19 -9 31 -23
31 -35 0 -30 22 -24 71 19 61 53 109 81 142 81 15 0 27 -2 27 -5z m-5406 -227
c48 -33 233 -235 263 -288 14 -25 41 -68 59 -96 33 -52 54 -124 37 -124 -14 0
-105 59 -135 88 -24 22 -28 34 -28 78 0 69 -28 105 -84 107 -25 1 -42 -5 -51
-16 -7 -9 -15 -17 -18 -17 -17 0 -92 83 -131 145 l-45 70 42 37 c23 20 46 37
50 38 4 0 23 -10 41 -22z m-288 -88 l40 -60 -15 -49 c-14 -43 -20 -50 -48 -56
-47 -9 -57 -34 -50 -133 7 -91 -2 -122 -32 -122 -36 0 -172 286 -174 368 -2
54 7 61 125 92 108 28 109 28 154 -40z m-2920 -65 c51 -21 79 -48 117 -115 17
-30 72 -96 122 -146 81 -82 101 -97 200 -144 61 -30 130 -61 155 -71 l45 -18
-189 -1 -189 0 -64 36 c-39 21 -101 72 -155 126 -87 87 -90 89 -120 79 -50
-18 -98 -14 -98 7 0 26 34 72 81 109 l42 33 -44 0 c-24 0 -61 5 -81 10 -64 18
-74 74 -20 105 34 19 142 14 198 -10z m3110 -99 c29 -14 67 -43 91 -71 47 -55
64 -55 90 0 32 68 68 29 61 -67 l-4 -59 45 -38 c55 -45 149 -102 223 -136 l53
-24 -165 0 c-131 -1 -180 3 -235 18 -39 10 -106 26 -150 36 -75 17 -155 48
-155 61 0 3 10 14 21 23 28 23 19 52 -27 87 -27 21 -34 33 -34 60 0 41 14 43
62 10 46 -31 60 -35 81 -24 26 13 21 43 -13 78 -34 34 -40 70 -12 70 9 0 40
-11 68 -24z m-3570 -143 c-3 -8 2 -16 12 -19 9 -3 30 -12 46 -20 21 -11 31
-12 36 -4 4 6 18 8 32 5 15 -4 29 -2 32 4 13 21 52 12 64 -13 15 -32 78 -51
127 -37 33 9 36 8 51 -21 8 -16 13 -32 10 -35 -3 -3 -46 -1 -95 6 -50 6 -147
14 -216 18 l-125 6 0 75 c0 66 2 73 15 62 9 -7 14 -19 11 -27z m12459 -118
l-8 -77 -36 6 c-20 3 -120 6 -223 6 -104 0 -188 3 -188 8 0 4 8 17 18 30 16
21 22 22 60 13 52 -11 107 2 122 29 11 21 70 29 70 10 0 -7 13 -8 35 -4 31 5
34 4 29 -11 -6 -15 -4 -16 16 -5 13 7 35 16 49 20 14 3 24 9 21 12 -6 7 31 50
38 44 2 -3 1 -39 -3 -81z"/>
<path d="M5860 1737 c-30 -13 -62 -27 -71 -32 -34 -21 -108 -116 -139 -179
-30 -61 -32 -71 -28 -143 7 -117 51 -186 164 -259 85 -55 166 -78 269 -79 78
0 97 4 146 28 126 61 168 112 190 231 21 116 -29 292 -105 365 -84 82 -307
117 -426 68z m267 -58 c123 -41 204 -148 205 -271 2 -146 -59 -241 -180 -278
-77 -24 -128 -25 -207 -5 -224 58 -318 209 -239 385 34 76 114 153 182 173 71
22 168 21 239 -4z"/>
<path d="M5716 984 c-132 -72 -327 -81 -452 -23 -51 24 -81 18 -90 -18 -12
-45 7 -75 66 -105 161 -82 404 -64 505 37 43 43 58 81 43 109 -11 20 -35 20
-72 0z"/>
<path d="M8020 1671 c-158 -61 -247 -179 -257 -340 -7 -103 10 -174 59 -247
39 -57 73 -78 169 -106 100 -28 174 -19 278 33 91 45 187 135 222 206 30 64
37 164 14 232 -18 55 -80 131 -143 175 -89 61 -250 84 -342 47z m270 -67 c66
-36 102 -72 140 -138 77 -133 0 -306 -173 -386 -122 -57 -236 -58 -326 -3
-108 67 -137 255 -63 403 32 63 77 102 158 136 83 35 186 30 264 -12z"/>
<path d="M8951 1070 c-101 -76 -261 -113 -398 -92 -81 13 -93 11 -93 -17 0
-90 284 -100 450 -16 49 25 130 105 130 129 0 9 -8 20 -18 25 -15 8 -29 2 -71
-29z"/>
<path d="M322 1528 c-18 -18 -15 -49 9 -87 l20 -33 -23 -25 -23 -25 28 -22
c33 -26 34 -34 5 -38 -30 -4 -32 -19 -6 -59 29 -42 89 -73 124 -65 59 15 94
85 80 161 -4 20 -25 56 -49 84 -23 26 -56 64 -74 84 -32 38 -68 48 -91 25z
m158 -163 c6 -8 14 -32 17 -54 8 -56 -16 -91 -61 -91 -35 0 -76 32 -57 45 17
10 13 56 -5 77 -16 16 -15 18 7 27 36 15 85 13 99 -4z"/>
<path d="M13804 1337 c-3 -8 1 -27 8 -43 l12 -29 4 29 4 28 23 -22 c25 -24 25
-40 -1 -40 -16 0 -53 -38 -54 -54 0 -6 10 -21 23 -34 12 -14 18 -26 12 -29 -5
-2 -17 -8 -25 -13 -23 -14 -1 -42 47 -59 69 -25 123 4 123 65 0 40 -22 89 -45
97 -8 4 -15 17 -15 31 0 47 -101 111 -116 73z"/>
<path d="M11204 1072 c-44 -21 -54 -37 -54 -83 0 -36 28 -50 159 -81 71 -16
131 -20 351 -24 277 -4 349 2 460 38 73 23 100 42 100 70 0 25 -26 75 -42 80
-7 2 -164 1 -348 -4 -208 -4 -365 -3 -415 3 -167 21 -168 21 -211 1z m519 -46
c326 0 367 -2 365 -16 -4 -19 -78 -26 -108 -10 -14 8 -25 8 -33 2 -20 -17 -84
-25 -105 -13 -15 8 -37 7 -86 -6 -61 -16 -66 -16 -83 0 -18 15 -20 15 -36 -3
-17 -21 -62 -26 -86 -11 -8 5 -26 4 -45 -4 -25 -11 -37 -11 -61 0 -25 10 -34
10 -56 -3 -28 -16 -99 -10 -99 8 0 6 -13 10 -28 10 -38 0 -67 22 -58 45 6 16
14 17 79 9 39 -4 238 -8 440 -8z"/>
<path d="M2710 960 c-34 -22 -121 -49 -194 -59 -95 -13 -198 0 -275 34 -51 24
-55 24 -73 9 -23 -22 -24 -76 0 -97 59 -54 215 -93 325 -82 111 10 162 31 218
84 44 42 50 53 47 82 -3 36 -22 47 -48 29z"/>
</g>
</svg>
